<svg width="119" height="17" viewBox="0 0 119 17" fill="none" xmlns="http://www.w3.org/2000/svg">
<g clip-path="url(#clip0_141_23)">
<path d="M16.3487 16.05C15.4138 15.5399 14.6751 14.8372 14.1384 13.9474C13.6018 13.0576 13.3363 12.0715 13.3363 10.989C13.3363 9.90655 13.6018 8.89776 14.1384 8.00798C14.6751 7.1182 15.408 6.41545 16.3487 5.90538C17.2835 5.39532 18.3511 5.14029 19.5399 5.14029C20.7287 5.14029 21.7963 5.39532 22.7427 5.90538C23.6891 6.41545 24.4278 7.1182 24.9645 8.00798C25.5012 8.89776 25.7666 9.89522 25.7666 10.989C25.7666 12.0828 25.5012 13.0576 24.9645 13.9474C24.4278 14.8372 23.6891 15.5399 22.7427 16.05C21.7963 16.56 20.7287 16.8151 19.5399 16.8151C18.3511 16.8151 17.2835 16.56 16.3487 16.05ZM16.5045 12.8139C16.8046 13.358 17.2201 13.783 17.751 14.0891C18.2819 14.3951 18.8763 14.5538 19.5399 14.5538C20.2036 14.5538 20.8037 14.4008 21.3404 14.0891C21.8771 13.783 22.2984 13.358 22.5985 12.8139C22.8985 12.2698 23.0486 11.6634 23.0486 10.9834C23.0486 10.3033 22.8985 9.69119 22.5985 9.14145C22.2984 8.59172 21.8771 8.161 21.3404 7.85496C20.8037 7.54892 20.2036 7.39024 19.5399 7.39024C18.8763 7.39024 18.2819 7.54326 17.751 7.85496C17.2201 8.161 16.8046 8.59172 16.5045 9.14145C16.2044 9.69119 16.0544 10.3033 16.0544 10.9834C16.0544 11.6634 16.2044 12.2698 16.5045 12.8139Z" fill="#EAEAEA"/>
<path d="M27.873 15.8063C27.0016 15.1319 26.5284 14.2251 26.4534 13.0803H29.2291C29.3965 14.0834 30.2159 14.5878 31.6817 14.5878C32.3973 14.5878 32.9224 14.4745 33.2514 14.2364C33.5803 14.0041 33.7419 13.6867 33.7419 13.2786C33.7419 12.8706 33.5457 12.5816 33.1475 12.4002C32.7493 12.2188 32.0799 12.0318 31.1277 11.8391C30.2275 11.6464 29.4773 11.4368 28.8829 11.2214C28.2885 11.006 27.7807 10.6603 27.3594 10.1956C26.9381 9.73087 26.7304 9.10179 26.7304 8.30269C26.7304 7.65661 26.915 7.07288 27.2786 6.54581C27.6479 6.01874 28.1846 5.59936 28.8944 5.28765C29.6042 4.97028 30.4583 4.81726 31.4509 4.81726C32.9167 4.81726 34.0593 5.14597 34.8788 5.80905C35.6982 6.47213 36.1599 7.33357 36.2638 8.39904H33.5342C33.4707 7.96265 33.2687 7.62828 32.9167 7.39592C32.5647 7.16355 32.0684 7.04454 31.4278 7.04454C30.7872 7.04454 30.3025 7.15222 29.9851 7.37325C29.6619 7.58861 29.5061 7.86631 29.5061 8.19501C29.5061 8.5974 29.7196 8.90344 30.1467 9.09613C30.5737 9.28882 31.2316 9.47017 32.1203 9.63453C33.009 9.79888 33.7477 9.99157 34.3421 10.2069C34.9365 10.4223 35.4501 10.768 35.8771 11.2441C36.3041 11.7145 36.5177 12.3605 36.5177 13.171C36.5177 13.8454 36.333 14.4631 35.9579 15.0185C35.5828 15.5739 35.0288 16.016 34.2959 16.3334C33.563 16.6507 32.6685 16.8151 31.6125 16.8151C29.9909 16.8151 28.7444 16.475 27.873 15.8006V15.8063Z" fill="#EAEAEA"/>
<path d="M37.9546 5.13463H39.9513L40.4072 6.50614C40.8631 5.96774 41.4171 5.54835 42.0692 5.25365C42.7213 4.95895 43.408 4.81726 44.1467 4.81726C44.9546 4.81726 45.6702 4.98728 46.2877 5.32166C46.9052 5.6617 47.3899 6.14343 47.7419 6.7725C48.1863 6.15476 48.7576 5.6787 49.4616 5.33299C50.1657 4.98728 50.9216 4.81726 51.7296 4.81726C53.0568 4.81726 54.1129 5.23098 54.892 6.05275C55.671 6.88018 56.0634 8.02499 56.0634 9.49851V16.4977H53.3108V10.1503C53.3108 9.20381 53.1145 8.48972 52.7279 8.01366C52.3355 7.53193 51.7699 7.2939 51.0197 7.2939C50.2695 7.2939 49.6636 7.59994 49.15 8.21768C48.6364 8.83543 48.3825 9.62886 48.3825 10.6036V16.5034H45.6298V10.1559C45.6298 9.20948 45.4336 8.49539 45.0469 8.01933C44.6545 7.5376 44.1121 7.29957 43.408 7.29957C42.6578 7.29957 42.023 7.60561 41.4921 8.21202C40.967 8.81843 40.7015 9.61753 40.7015 10.6093V16.5091H37.9489V5.13463H37.9546Z" fill="#EAEAEA"/>
<path d="M58.1294 5.13464H60.8821V16.5034H58.1294V5.13464Z" fill="#EAEAEA"/>
<path d="M65.3948 16.05C64.4483 15.5399 63.7039 14.8315 63.173 13.9247C62.6363 13.018 62.3708 11.9922 62.3708 10.853C62.3708 9.71388 62.6363 8.65975 63.173 7.7473C63.7097 6.83485 64.4483 6.1151 65.3948 5.59937C66.3412 5.08364 67.4203 4.82294 68.6264 4.82294C70.1557 4.82294 71.4657 5.24799 72.5563 6.09243C73.647 6.94253 74.3453 8.07034 74.6511 9.48152H71.8754C71.633 8.77876 71.2175 8.22903 70.6347 7.84931C70.0518 7.46393 69.3766 7.27691 68.5918 7.27691C67.9339 7.27691 67.3453 7.42426 66.8144 7.72463C66.2892 8.025 65.8737 8.44439 65.5736 8.98279C65.2736 9.52119 65.1293 10.1389 65.1293 10.8304C65.1293 11.5218 65.2793 12.1112 65.5852 12.6552C65.891 13.1936 66.3065 13.6187 66.8317 13.9134C67.3568 14.2138 67.9512 14.3611 68.6091 14.3611C69.3708 14.3611 70.0403 14.1741 70.6173 13.8001C71.1887 13.426 71.6041 12.8763 71.8638 12.1565H74.6396C74.3164 13.5677 73.6124 14.6955 72.5217 15.5456C71.431 16.3957 70.1153 16.8151 68.5918 16.8151C67.3972 16.8151 66.3296 16.5601 65.3832 16.05H65.3948Z" fill="#EAEAEA"/>
<path d="M9.61417 12.6439C9.28524 13.1936 8.82934 13.6244 8.24649 13.9361C7.66941 14.2534 7.01154 14.4065 6.27864 14.4065C5.54575 14.4065 4.89365 14.2478 4.31657 13.9361C3.73949 13.6187 3.28936 13.1936 2.96043 12.6439C2.63149 12.0942 2.46414 11.4934 2.46414 10.8247C2.46414 10.1559 2.63149 9.54386 2.96043 8.99412C3.28936 8.45006 3.73949 8.01367 4.31657 7.70196C4.89365 7.38459 5.54575 7.23157 6.27864 7.23157C7.01154 7.23157 7.66941 7.39026 8.24649 7.70196C8.82934 8.01934 9.27947 8.45006 9.61417 8.99412C9.70651 9.15281 9.7873 9.3115 9.85655 9.48152H12.2861C11.9802 8.07034 11.2819 6.93687 10.1913 6.09243C9.0948 5.24232 7.78483 4.82294 6.26133 4.82294C5.05523 4.82294 3.97609 5.07797 3.02968 5.59937C2.08326 6.1151 1.33883 6.83485 0.802143 7.7473C0.265457 8.66542 0 9.69688 0 10.853C0 12.0092 0.265457 13.018 0.802143 13.9304C1.33883 14.8372 2.07749 15.5456 3.02968 16.0557C3.97609 16.5657 5.04369 16.8208 6.23825 16.8208C7.76751 16.8208 9.07749 16.3957 10.1682 15.5513C11.2589 14.7012 11.9687 13.5734 12.2861 12.1622H9.85655C9.79307 12.3265 9.70651 12.4909 9.61417 12.6496V12.6439Z" fill="#EAEAEA"/>
<path d="M93.5968 6.34179C92.737 5.53702 91.5424 5.13464 90.0247 5.13464H82.1591V4.0295C82.1591 3.42876 82.286 3.00371 82.5515 2.74868C82.8112 2.49364 83.2267 2.36329 83.8095 2.36329H85.5927V0H83.3479C82.0206 0 81.028 0.328708 80.3817 0.980456C79.7296 1.6322 79.4064 2.61266 79.4064 3.91616V5.13464H77.0461V7.49793H79.4064V16.5034H82.1591V7.49793H89.9728V7.4866H89.9843C90.7057 7.4866 91.2654 7.67929 91.6636 8.05901C92.0618 8.44439 92.2638 9.00546 92.2638 9.74222V10.0936H88.9456C87.5894 10.0936 86.5334 10.394 85.7716 10.9947C85.0156 11.5954 84.6348 12.4229 84.6348 13.4827C84.6348 14.5425 85.0099 15.3189 85.7543 15.914C86.4987 16.5091 87.5029 16.8038 88.7724 16.8038C89.5515 16.8038 90.2671 16.6734 90.9192 16.407C91.5655 16.135 92.1253 15.7326 92.5985 15.1999L92.9967 16.5034H94.901V9.6402C94.901 8.23469 94.4682 7.13522 93.6026 6.32479L93.5968 6.34179ZM92.258 12.1225C92.258 12.8649 91.9868 13.46 91.4501 13.9134C90.9134 14.3725 90.1632 14.5992 89.2052 14.5992C88.5993 14.5992 88.1376 14.4801 87.8202 14.2534C87.5029 14.0211 87.3413 13.6924 87.3413 13.273C87.3413 12.8536 87.4971 12.5306 87.8029 12.3039C88.1146 12.0772 88.5705 11.9695 89.1764 11.9695H92.2522V12.1168L92.258 12.1225Z" fill="#559AC0"/>
<path d="M104.694 8.07034C104.238 7.55461 103.586 7.29391 102.744 7.29391C101.843 7.29391 101.105 7.62262 100.533 8.27437C99.962 8.92612 99.6735 9.79322 99.6735 10.8757V16.5034H96.9208V5.13464H98.9175L99.4195 6.59682C99.8754 6.02442 100.458 5.58803 101.162 5.28199C101.866 4.97596 102.645 4.82294 103.5 4.82294C104.908 4.82294 106.027 5.27066 106.87 6.16044C107.712 7.05588 108.128 8.2857 108.128 9.86123V16.5034H105.375V10.3996C105.375 9.3625 105.144 8.58607 104.688 8.07034H104.694Z" fill="#559AC0"/>
<path d="M60.9745 0H58.0371V2.74868H60.9745V0Z" fill="#E7408A"/>
</g>
<path d="M110.355 15.8063C109.484 15.1319 109.011 14.2251 108.936 13.0803H111.711C111.879 14.0834 112.698 14.5878 114.164 14.5878C114.88 14.5878 115.405 14.4745 115.734 14.2364C116.063 14.0041 116.224 13.6867 116.224 13.2786C116.224 12.8706 116.028 12.5816 115.63 12.4002C115.232 12.2188 114.562 12.0318 113.61 11.8391C112.71 11.6464 111.96 11.4368 111.365 11.2214C110.771 11.006 110.263 10.6603 109.842 10.1956C109.42 9.73087 109.213 9.10179 109.213 8.30269C109.213 7.65661 109.397 7.07288 109.761 6.54581C110.13 6.01874 110.667 5.59936 111.377 5.28765C112.087 4.97028 112.941 4.81726 113.933 4.81726C115.399 4.81726 116.542 5.14597 117.361 5.80905C118.181 6.47213 118.642 7.33357 118.746 8.39904H116.016C115.953 7.96265 115.751 7.62828 115.399 7.39592C115.047 7.16355 114.551 7.04454 113.91 7.04454C113.27 7.04454 112.785 7.15222 112.467 7.37325C112.144 7.58861 111.988 7.86631 111.988 8.19501C111.988 8.5974 112.202 8.90344 112.629 9.09613C113.056 9.28882 113.714 9.47017 114.603 9.63453C115.491 9.79888 116.23 9.99157 116.824 10.2069C117.419 10.4223 117.932 10.768 118.359 11.2441C118.786 11.7145 119 12.3605 119 13.171C119 13.8454 118.815 14.4631 118.44 15.0185C118.065 15.5739 117.511 16.016 116.778 16.3334C116.045 16.6507 115.151 16.8151 114.095 16.8151C112.473 16.8151 111.227 16.475 110.355 15.8006V15.8063Z" fill="#559AC0"/>
<defs>
<clipPath id="clip0_141_23">
<rect width="108.133" height="16.8208" fill="white"/>
</clipPath>
</defs>
</svg>
